<svg width="220" height="72" viewBox="0 0 220 72" fill="none" xmlns="http://www.w3.org/2000/svg">
<path d="M46.0731 51.0077L30.6137 15.1637C30.5758 15.0758 30.4516 15.0748 30.4122 15.162L10 60.3702H47.9394C54.288 60.3702 60.8051 59.9465 66.4465 57.0348C90.7655 44.4829 77.0779 14.9346 57.6386 14.9346C36.1599 14.9346 38.5005 14.9346 38.3628 14.9346" stroke="white" stroke-width="4.40588"/>
<ellipse cx="46.0731" cy="51.0075" rx="3.30441" ry="3.30441" fill="#EF7F33"/>
<ellipse cx="40.2904" cy="14.9343" rx="3.30441" ry="3.30441" fill="#EF7F33"/>
<path d="M98.3565 42.7822L97.9599 40.2444H95.3825L94.9661 42.7822H91.9724L94.9463 29.7364H98.8323L101.846 42.7822H98.3565ZM95.6997 38.242H97.6427L96.7109 32.413H96.6316L95.6997 38.242ZM104.4 42.7822V38.1032L101.149 29.7364H104.757L106.125 35.1292H106.185L107.533 29.7364H110.586L107.334 38.1032V42.7822H104.4ZM116.256 42.9408C113.6 42.9408 112.212 41.4142 112.212 38.4997V29.7364H115.146V38.4997C115.146 39.6893 115.602 40.3237 116.474 40.3237C117.307 40.3237 117.743 39.6893 117.743 38.4997V29.7364H120.281V38.4997C120.281 41.4142 118.893 42.9408 116.256 42.9408ZM126.106 42.9408C122.894 42.9408 122.121 41.097 122.121 38.2221H124.718C124.718 40.1057 125.055 40.641 126.106 40.641C126.959 40.641 127.315 40.1453 127.315 39.3126C127.315 38.6187 127.137 38.3213 126.82 38.0834C126.562 37.8851 126.066 37.667 125.115 37.3101C124.242 36.9929 123.529 36.6162 123.112 36.2197C122.517 35.724 122.101 34.7723 122.101 33.4638C122.101 31.1044 123.588 29.5778 126.106 29.5778C129.04 29.5778 129.972 31.0053 129.972 34.3956H127.415C127.415 32.3337 127.078 31.8777 126.166 31.8777C125.472 31.8777 125.035 32.3733 125.035 33.1862C125.035 33.9595 125.214 34.2965 125.491 34.5344C125.769 34.7723 126.423 35.0499 127.236 35.3671C128.168 35.724 128.703 35.9818 129.219 36.4179C129.873 36.9731 130.25 37.9049 130.25 39.0945C130.25 41.4142 128.822 42.9408 126.106 42.9408ZM132.115 42.7822V29.7364H135.049V34.8318H137.904V29.7364H140.839V42.7822H137.904V37.33H135.049V42.7822H132.115ZM147.022 42.7822V29.7364H150.63C153.981 29.7364 155.31 31.5803 155.31 36.2197C155.31 40.8987 154.041 42.7822 150.888 42.7822H147.022ZM149.956 40.2444H150.829C151.939 40.2444 152.355 39.0945 152.355 36.2197C152.355 33.4043 151.919 32.2742 150.73 32.2742H149.956V40.2444ZM162.71 42.7822L162.313 40.2444H159.736L159.319 42.7822H156.325L159.299 29.7364H163.185L166.199 42.7822H162.71ZM160.053 38.242H161.996L161.064 32.413H160.985L160.053 38.242ZM167.873 42.7822V29.7364H171.66C174.456 29.7364 175.744 31.2036 175.744 34.4551C175.744 37.6273 174.574 39.1143 171.997 39.1143H170.807V42.7822H167.873ZM170.807 37.0127H171.799C172.631 37.0127 173.008 36.2791 173.008 34.6732C173.008 33.0276 172.592 32.2742 171.68 32.2742H170.807V37.0127ZM177.553 42.7822V29.7364H180.488V34.8318H183.343V29.7364H186.277V42.7822H183.343V37.33H180.488V42.7822H177.553ZM194.344 42.7822L193.948 40.2444H191.37L190.954 42.7822H187.96L190.934 29.7364H194.82L197.834 42.7822H194.344ZM191.688 38.242H193.631L192.699 32.413H192.619L191.688 38.242ZM199.508 42.7822V29.7364H202.442V40.2444H205.357V42.7822H199.508Z" fill="#EF7F33"/>
</svg>
